<?xml version="1.0" standalone="no"?>
<!DOCTYPE svg PUBLIC "-//W3C//DTD SVG 20010904//EN"
 "http://www.w3.org/TR/2001/REC-SVG-20010904/DTD/svg10.dtd">
<svg version="1.0" xmlns="http://www.w3.org/2000/svg"
 width="460.000000pt" height="484.000000pt" viewBox="0 0 460.000000 484.000000"
 preserveAspectRatio="xMidYMid meet">

<g transform="translate(0.000000,484.000000) scale(0.100000,-0.100000)"
fill="#000000" stroke="none">
<path class="draw-animate" d="M2134 4775 c-17 -13 -37 -38 -44 -55 -12 -29 -14 -30 -84 -30 l-72 0
-57 -117 c-31 -65 -67 -147 -80 -183 l-24 -65 -90 -1 c-49 0 -95 -4 -102 -8
-6 -4 -54 3 -106 15 -123 30 -139 25 -183 -59 -18 -34 -39 -62 -46 -62 -6 0
-30 14 -53 30 -48 35 -69 31 -78 -13 -12 -59 -16 -67 -43 -81 -23 -12 -31 -12
-52 -1 -24 13 -26 12 -52 -38 -34 -65 -35 -108 -4 -161 17 -31 25 -62 29 -128
3 -48 11 -96 17 -107 8 -17 4 -34 -25 -91 l-36 -71 53 -64 c49 -60 53 -67 53
-122 1 -46 -7 -78 -37 -152 l-38 -95 55 -52 c60 -58 67 -82 39 -136 -30 -59
-55 -149 -49 -178 8 -37 -15 -50 -87 -50 -48 0 -58 -4 -86 -32 -33 -35 -82
-135 -82 -169 0 -12 30 -55 69 -98 l69 -76 -31 -43 c-17 -23 -36 -42 -42 -42
-6 0 -38 20 -71 45 -68 51 -94 55 -140 20 -40 -31 -48 -31 -130 0 -37 14 -69
23 -71 21 -2 -2 -37 -82 -77 -177 -92 -218 -121 -275 -147 -290 -14 -7 -45 -8
-89 -4 l-68 7 -11 -49 c-10 -42 -9 -68 9 -173 12 -68 23 -126 25 -129 2 -4 39
-24 84 -45 65 -32 82 -46 91 -70 6 -17 51 -70 101 -117 l90 -87 -26 -52 -27
-52 28 -29 c33 -35 57 -32 130 18 51 34 53 35 106 24 46 -10 61 -9 112 9 l59
20 101 -30 100 -30 105 69 104 70 31 -16 c17 -9 89 -38 160 -64 l130 -48 28
20 c21 16 28 29 28 54 0 30 -7 39 -54 72 -67 47 -82 74 -60 108 26 41 65 33
108 -20 25 -30 45 -45 61 -45 46 0 149 -56 174 -95 30 -44 82 -82 134 -96 35
-9 41 -8 86 25 27 20 57 36 66 36 20 0 150 -103 159 -125 3 -8 35 -34 71 -58
93 -63 100 -74 76 -130 -35 -81 -37 -130 -8 -205 14 -37 33 -88 42 -113 20
-59 70 -136 102 -156 13 -9 61 -26 107 -38 99 -26 161 -70 175 -122 12 -42
110 -176 125 -170 69 25 130 36 231 41 66 2 143 12 170 20 73 22 249 130 263
161 7 14 15 56 18 93 5 54 3 75 -11 103 -23 45 -75 99 -95 99 -9 0 -25 6 -35
14 -18 13 -18 15 -1 60 10 26 42 73 72 106 49 53 59 59 107 65 65 9 78 16 151
79 53 46 63 51 105 50 32 0 68 -12 118 -37 80 -41 126 -46 176 -21 51 26 137
104 154 140 18 38 51 56 76 42 66 -36 -98 247 -175 304 -65 48 -144 135 -170
188 -24 47 -28 68 -28 139 l0 84 65 87 c57 76 71 89 108 99 23 7 76 28 117 49
72 35 76 39 88 84 22 80 -16 166 -91 205 -17 8 -55 38 -83 65 -53 50 -53 50
-36 76 10 16 20 57 24 107 16 204 18 213 50 226 32 13 42 28 52 76 6 26 1 40
-28 83 -41 59 -41 64 -21 140 8 30 13 56 11 58 -8 8 -150 23 -170 18 -12 -3
-40 -21 -63 -41 -41 -35 -43 -36 -72 -20 -33 17 -47 50 -37 90 11 42 -56 141
-115 171 -38 19 -53 22 -73 14 -34 -13 -52 -5 -77 36 -15 24 -19 42 -14 64 9
43 -24 86 -73 95 -50 8 -52 10 -96 82 -21 34 -56 74 -78 89 -50 35 -65 60 -40
69 11 3 24 17 31 32 l12 26 -62 -6 c-48 -6 -70 -3 -104 12 -63 28 -88 75 -93
179 l-5 84 29 -5 c50 -10 134 -19 134 -15 0 2 9 53 20 113 l20 108 -31 54
c-27 47 -30 60 -24 99 5 39 3 49 -26 88 -33 47 -59 61 -124 69 -22 3 -48 8
-57 12 -13 5 -21 0 -29 -18 -9 -19 -21 -26 -53 -31 -22 -3 -63 -8 -91 -12 -46
-6 -56 -13 -125 -84 -98 -101 -119 -114 -154 -99 -24 11 -26 16 -19 43 14 55
6 105 -22 145 -26 38 -27 39 -112 46 -65 5 -93 12 -120 31 -38 25 -78 38 -153
48 -40 6 -49 12 -79 56 -19 28 -35 50 -35 50 -1 0 -15 -11 -32 -25z m145 -90
c76 -11 116 -24 154 -49 27 -18 55 -26 119 -31 81 -7 85 -8 107 -41 24 -35 31
-88 18 -141 -8 -29 -6 -33 23 -48 29 -15 33 -15 58 1 15 9 61 51 102 94 69 71
79 78 125 84 28 4 69 9 93 13 33 4 46 11 55 30 7 16 16 22 26 17 9 -3 34 -8
56 -11 63 -7 88 -21 118 -63 25 -35 27 -46 22 -84 -6 -39 -3 -52 24 -99 l31
-55 -15 -83 c-9 -46 -18 -94 -21 -107 -5 -25 4 -25 -125 -6 l-42 6 5 -90 c3
-78 8 -96 32 -132 37 -56 97 -83 166 -74 56 7 66 -5 25 -32 -31 -20 -22 -41
35 -81 23 -16 58 -57 81 -95 34 -56 47 -69 78 -78 20 -5 41 -10 47 -10 22 0
46 -50 39 -81 -5 -21 0 -39 15 -64 28 -46 51 -58 84 -45 45 17 108 -22 151
-92 25 -40 34 -64 30 -79 -14 -43 3 -84 42 -103 35 -17 36 -17 62 7 56 52 76
59 143 52 102 -11 98 -8 82 -68 -19 -73 -18 -78 21 -136 39 -57 38 -53 25
-102 -7 -25 -19 -40 -44 -51 -36 -18 -37 -21 -54 -233 -4 -50 -14 -91 -24
-107 -17 -26 -17 -26 40 -81 32 -30 72 -61 89 -70 68 -36 102 -114 82 -192
-12 -46 -13 -47 -95 -85 -45 -21 -97 -41 -114 -45 -24 -5 -46 -27 -100 -99
l-70 -93 0 -84 c0 -71 4 -92 28 -139 26 -52 114 -150 178 -196 16 -12 60 -67
97 -122 68 -102 98 -165 74 -160 -27 5 -59 -16 -77 -51 -20 -40 -93 -107 -147
-135 -50 -25 -96 -20 -176 21 -50 25 -86 37 -118 37 -42 1 -52 -4 -105 -50
-73 -63 -86 -70 -151 -79 -46 -6 -57 -13 -108 -66 -60 -63 -100 -138 -90 -169
3 -11 19 -21 38 -25 40 -9 73 -39 99 -90 17 -33 19 -50 14 -107 -3 -37 -11
-78 -17 -90 -13 -29 -171 -125 -247 -151 -38 -13 -96 -21 -177 -24 -101 -4
-161 -14 -230 -40 -15 -5 -105 120 -116 161 -15 54 -85 104 -182 130 -45 12
-92 28 -103 34 -28 15 -79 92 -99 151 -9 25 -28 76 -42 113 -29 75 -27 124 8
204 17 41 17 47 3 69 -8 13 -44 43 -80 66 -36 23 -69 50 -74 59 -14 27 -145
130 -165 130 -9 0 -39 -16 -65 -35 -39 -29 -54 -34 -77 -29 -50 11 -109 52
-139 95 -21 31 -45 49 -92 70 -35 16 -74 29 -87 29 -15 0 -35 16 -59 45 -46
56 -83 61 -115 16 -29 -40 -15 -68 55 -116 47 -32 54 -42 54 -70 0 -23 -7 -37
-23 -48 -22 -14 -32 -12 -153 32 -71 26 -143 55 -160 64 l-31 16 -104 -70
-105 -69 -100 30 -101 30 -59 -20 c-51 -18 -66 -19 -112 -9 -53 11 -55 10
-106 -24 -70 -48 -97 -53 -125 -23 l-22 24 26 52 27 52 -91 87 c-53 51 -95
100 -102 119 -9 27 -25 40 -93 74 -44 22 -82 41 -83 42 -1 1 -11 58 -23 128
-18 103 -19 133 -10 168 l11 42 60 -7 c94 -11 109 0 162 113 25 53 66 149 92
212 68 167 54 153 130 125 81 -31 89 -31 129 0 46 35 72 31 140 -20 33 -25 65
-45 72 -45 7 0 28 21 47 47 l35 47 -69 77 c-39 43 -69 86 -69 98 0 31 48 133
77 164 23 23 35 27 79 27 29 0 65 5 79 12 23 10 26 16 20 45 -6 33 17 120 49
181 28 54 21 79 -39 136 l-55 53 38 94 c30 74 38 106 37 152 0 55 -4 62 -53
122 l-53 64 36 71 c29 57 33 74 25 91 -6 11 -14 59 -17 107 -4 66 -12 97 -29
128 -30 51 -30 91 -2 149 22 46 32 52 57 36 9 -6 26 -3 48 7 27 13 35 23 39
54 4 21 12 45 19 55 11 15 16 14 56 -15 23 -18 50 -32 59 -32 9 0 28 26 48 65
40 81 54 85 176 57 71 -17 101 -19 136 -12 25 4 72 6 106 3 l60 -6 34 89 c18
49 55 133 82 187 l48 97 70 0 c68 0 70 0 86 33 8 17 27 42 42 54 l26 22 34
-49 c31 -44 39 -50 81 -55z"/>
</g>
</svg>
