<svg id="Layer_1" data-name="Layer 1" xmlns="http://www.w3.org/2000/svg" viewBox="0 0 445.97 479.36" style=""><defs><style>.cls-1{fill:none;stroke:#231f20;stroke-miterlimit:10;fill-rule:evenodd;}</style></defs><title>delhi [Converted] 2</title><g id="BIqIDB.tif"><path class="cls-1 xARMNSVl_0" d="M263.5,41.08l7.2,9.36c3.16,2.15,9.32,1.69,13.2,2.88s6.41,3.85,9.84,5c4.95,1.71,14.17.09,18,3.12,2.91,2.3,5.83,8.68,4.8,14.64-.39,2.27-1.34,4.25-.24,6.24,10.14,3.37,17-12,24.24-16.32,4.24-2.53,11.28-1.08,16.32-2.88,2.44-.87,2.56-3.43,4.56-4.56,1.59-.31,3.19.61,4.8,1,8.93,1.94,15,3.39,17.52,11.28V80.92l5.52,9.84-4.08,22.56a73.9,73.9,0,0,1-16.32-2.16c1,22,3.59,29.1,26.4,26.64-.82,3.95-3.4,4.73-5.52,7.2,2,4.5,7.18,6.4,10.08,10.08,2.57,3.27,4.48,8.95,7.92,11.28,3.27,2.21,7.94,1.29,10.32,4.32,3.85,4.9-.25,12.73,6,16.56,2.61,1.6,4.77-1.11,7.92-.48,3.75.75,8,3.87,10.08,6.48,1.94,2.44,4.22,5.48,5.28,8.64,2.05,6.11-2.35,13,7,13.68l9.84-7c4.75-1.66,13.64.71,17.76,1.68v1.2c-1.13,3.68-3.68,10.13-1.92,14.4,1.59,3.85,6.88,6.54,5.76,12.72-1.44,7.94-5.21,5.41-7.68,9.36-3.38,5.4-1.68,19.7-3.36,26.88-.54,2.32-2.92,5.5-2.4,7.44,5.22,10.69,19.85,10.74,22.32,25,2.72,15.64-14.17,16.68-23.28,20.88-2.58,1.19-14.06,15.05-15.12,17.76l.24,15.6c1.92,9.75,10.12,18.26,16.8,23.52l5.52,4.32a143,143,0,0,1,8.4,11.76c2.11,3.18,8.69,12.16,7.68,16.8h-.24c-2.27-.33-4-1.12-6,.24s-2.48,3.92-3.84,5.76c-3.54,4.8-10.25,10.9-16.32,13-12.77,4.33-17.75-9.83-30.72-6.72-5.69,1.37-9.45,7.72-14.16,10.56-3.38,2-8.5,1.44-12.48,3.12-4.47,1.89-15.49,15-14.4,21.36,9.82,5.34,17.7,9.46,14.64,25.44-.84,4.39-1,6.89-3.84,9.12-6.62,5.23-15.71,11.37-24.72,13.68-7.94,2-17.59.83-26.16,2.4l-13.68,3.36a64.1,64.1,0,0,1-10.56-13.44c-2.09-3.56-2.61-7.4-5.76-9.84-6.55-5.09-17.85-5-24.72-10.08-2.67-2-5-6-6.72-8.88a89,89,0,0,1-8.88-24.24c-1.39-8.06,5.33-14.33,3.84-19.44-1.19-4.07-8-6.82-11.28-9.12-7.28-5.18-11.78-12.58-20.4-16.8L247.18,414c-9.4,2.21-17.84-12-23.28-15.36l-8.4-3.84-5.52-1.2c-2.91-1.85-6.19-9.4-10.8-8.16-4.43.79-5.11,5.75-2.64,8.88,4.83,6.11,18.93,9.38,5,19-11-2.67-22.63-7.94-32.16-12.72l-20.88,13.92-19.68-6-10.8,3.36c-3.7.76-7.08-.74-9.84-1.2C98.47,409.05,95,426.4,84.7,412.6L90,402l-10.32-9.6-7.92-8.88c-1.11-1.6-1.37-3.62-2.88-4.8l-15.6-8.4c-1.25-12.28-5.15-22.22-2.16-35.28,4.43,0,10.92,2.22,15.36.48,4-1.55,6.2-9.27,7.92-13.2l14.88-33.84,15.6,4.56c4.36-.5,6.08-6.12,11.76-4.56,3.37.93,12.48,9.21,14.4,8.16,2.7-1.29,4.84-5.27,6.48-7.68v-.48c-2.93-2.22-13-13.13-13.68-16.8-.83-4.79,7.41-17.27,10.08-19.2,4-2.86,12.18-.54,15.6-3.84a36.87,36.87,0,0,1,1.44-12.24c1.26-4,6.19-9.83,4.8-14.64-1.65-5.74-8.72-7.44-10.8-12.48,2.59-5.79,10.47-20.83,7-29.76-1.49-3.8-9.58-10.61-10.08-13l6.48-14.16-1.68-7.68L145.42,132l-4.08-9.6c-1.69-6.18,2.33-14.11,5.52-16.56l4.56,1.68c6.53.56,6.17-9.2,8.88-12.72,5.13,0,7.57,3.54,11.28,5.28,4.32-3.36,5.33-12.29,11.28-13.68,5.8-1.36,11.83,1.67,16.32,2.64,4.83,1,11.52.33,16.8-.48h8.4l3.84-10.8,12-25.68c4.57.05,10.11.35,13.92-.48,1.58-1.27,1.91-3.4,3.12-5Z" transform="translate(-49.5 -40.35)"></path></g><style data-made-with="vivus-instant">.xARMNSVl_0{stroke-dasharray:1898 1900;stroke-dashoffset:1899;animation:xARMNSVl_draw_0 1600ms ease-in-out 0ms infinite,xARMNSVl_fade 1600ms ease-in-out 0ms infinite;}@keyframes xARMNSVl_draw{100%{stroke-dashoffset:0;}}@keyframes xARMNSVl_fade{0%{stroke-opacity:1;}96.15384615384616%{stroke-opacity:1;}100%{stroke-opacity:0;}}@keyframes xARMNSVl_draw_0{0%{stroke-dashoffset: 1899}96.15384615384616%{ stroke-dashoffset: 0;}100%{ stroke-dashoffset: 0;}}</style></svg>