<?xml version="1.0"?>
<svg xmlns="http://www.w3.org/2000/svg"  viewBox="0 0 512 512" class=""><g><link xmlns="" type="text/css" id="dark-mode" rel="stylesheet" href="" class="active-path" style="fill:#FCFBFB" data-old_color="#BBBABA"/><style xmlns="" type="text/css" id="dark-mode-custom-style" class="active-path" style="fill:#FCFBFB" data-old_color="#BBBABA"/><path d="m415.1875 189.519531c2.402344 5.757813 7.976562 9.222657 13.847656 9.222657 1.925782 0 3.886719-.371094 5.773438-1.160157l49.355468-20.613281c7.644532-3.191406 11.253907-11.976562 8.0625-19.621094-3.191406-7.644531-11.976562-11.253906-19.621093-8.0625l-49.359375 20.613282c-7.644532 3.191406-11.253906 11.976562-8.058594 19.621093zm0 0" data-original="#000000" class="active-path" data-old_color="#BBBABA" fill="#FCFBFB"/><path d="m169.898438 88.753906c2.402343 5.753906 7.976562 9.222656 13.847656 9.222656 1.925781 0 3.886718-.375 5.773437-1.160156 7.644531-3.195312 11.253907-11.980468 8.0625-19.625l-20.613281-49.355468c-3.191406-7.644532-11.976562-11.253907-19.621094-8.0625-7.644531 3.191406-11.253906 11.976562-8.0625 19.621093zm0 0" data-original="#000000" class="active-path" data-old_color="#BBBABA" fill="#FCFBFB"/><path d="m342.101562 423.246094c-3.191406-7.644532-11.972656-11.25-19.621093-8.0625-7.644531 3.195312-11.253907 11.980468-8.058594 19.625l20.609375 49.355468c2.40625 5.757813 7.980469 9.226563 13.851562 9.226563 1.925782 0 3.882813-.375 5.773438-1.164063 7.644531-3.191406 11.25-11.976562 8.058594-19.621093zm0 0" data-original="#000000" class="active-path" data-old_color="#BBBABA" fill="#FCFBFB"/><path d="m96.8125 322.480469c-3.191406-7.644531-11.976562-11.253907-19.621094-8.0625l-49.359375 20.613281c-7.644531 3.195312-11.253906 11.980469-8.058593 19.621094 2.402343 5.757812 7.976562 9.226562 13.847656 9.226562 1.925781 0 3.886718-.375 5.773437-1.164062l49.359375-20.613282c7.644532-3.191406 11.253906-11.976562 8.058594-19.621093zm0 0" data-original="#000000" class="active-path" data-old_color="#BBBABA" fill="#FCFBFB"/><path d="m321.554688 96.429688c1.863281.765624 3.792968 1.128906 5.691406 1.128906 5.902344 0 11.5-3.507813 13.882812-9.304688l20.324219-49.476562c3.148437-7.664063-.511719-16.425782-8.175781-19.574219-7.664063-3.148437-16.425782.511719-19.574219 8.175781l-20.324219 49.476563c-3.148437 7.664062.511719 16.425781 8.175782 19.574219zm0 0" data-original="#000000" class="active-path" data-old_color="#BBBABA" fill="#FCFBFB"/><path d="m27.378906 178.296875 49.476563 20.324219c1.863281.765625 3.792969 1.128906 5.695312 1.128906 5.898438 0 11.496094-3.507812 13.878907-9.304688 3.148437-7.660156-.511719-16.425781-8.175782-19.574218l-49.476562-20.324219c-7.664063-3.144531-16.425782.511719-19.574219 8.175781-3.148437 7.664063.511719 16.425782 8.175781 19.574219zm0 0" data-original="#000000" class="active-path" data-old_color="#BBBABA" fill="#FCFBFB"/><path d="m484.621094 333.703125-49.476563-20.324219c-7.664062-3.148437-16.425781.511719-19.574219 8.175782-3.148437 7.660156.511719 16.425781 8.175782 19.574218l49.476562 20.324219c1.863282.765625 3.792969 1.128906 5.691406 1.128906 5.902344 0 11.5-3.507812 13.882813-9.304687 3.148437-7.664063-.511719-16.425782-8.175781-19.574219zm0 0" data-original="#000000" class="active-path" data-old_color="#BBBABA" fill="#FCFBFB"/><path d="m190.445312 415.570312c-7.664062-3.152343-16.425781.511719-19.574218 8.175782l-20.324219 49.476562c-3.148437 7.664063.511719 16.425782 8.175781 19.574219 1.863282.765625 3.792969 1.128906 5.691406 1.128906 5.902344 0 11.5-3.503906 13.882813-9.304687l20.324219-49.476563c3.148437-7.664062-.511719-16.425781-8.175782-19.574219zm0 0" data-original="#000000" class="active-path" data-old_color="#BBBABA" fill="#FCFBFB"/><path d="m388.589844 138.410156c3.839844 0 7.679687-1.464844 10.605468-4.394531l37.824219-37.820313c5.859375-5.859374 5.859375-15.355468 0-21.214843-5.855469-5.859375-15.355469-5.859375-21.210937 0l-37.824219 37.824219c-5.859375 5.855468-5.859375 15.351562 0 21.210937 2.929687 2.929687 6.765625 4.394531 10.605469 4.394531zm0 0" data-original="#000000" class="active-path" data-old_color="#BBBABA" fill="#FCFBFB"/><path d="m112.804688 134.015625c2.925781 2.929687 6.765624 4.394531 10.605468 4.394531 3.835938 0 7.675782-1.464844 10.605469-4.394531 5.855469-5.855469 5.855469-15.355469 0-21.210937l-37.820313-37.824219c-5.859374-5.855469-15.355468-5.855469-21.214843 0-5.859375 5.859375-5.859375 15.355469 0 21.214843zm0 0" data-original="#000000" class="active-path" data-old_color="#BBBABA" fill="#FCFBFB"/><path d="m399.195312 377.984375c-5.855468-5.859375-15.351562-5.859375-21.210937 0-5.859375 5.855469-5.859375 15.355469 0 21.210937l37.820313 37.824219c2.929687 2.925781 6.769531 4.390625 10.605468 4.390625 3.839844 0 7.679688-1.464844 10.609375-4.390625 5.855469-5.859375 5.855469-15.355469 0-21.214843zm0 0" data-original="#000000" class="active-path" data-old_color="#BBBABA" fill="#FCFBFB"/><path d="m112.804688 377.984375-37.824219 37.820313c-5.859375 5.859374-5.859375 15.355468 0 21.214843 2.929687 2.929688 6.765625 4.394531 10.605469 4.394531 3.839843 0 7.679687-1.464843 10.605468-4.394531l37.824219-37.824219c5.855469-5.855468 5.855469-15.351562 0-21.210937-5.855469-5.855469-15.355469-5.855469-21.210937 0zm0 0" data-original="#000000" class="active-path" data-old_color="#BBBABA" fill="#FCFBFB"/><path d="m256 83.488281c8.285156 0 15-6.714843 15-15v-53.488281c0-8.285156-6.714844-15-15-15s-15 6.714844-15 15v53.488281c0 8.285157 6.714844 15 15 15zm0 0" data-original="#000000" class="active-path" data-old_color="#BBBABA" fill="#FCFBFB"/><path d="m83.488281 256c0-8.285156-6.714843-15-15-15h-53.488281c-8.285156 0-15 6.714844-15 15s6.714844 15 15 15h53.488281c8.285157 0 15-6.714844 15-15zm0 0" data-original="#000000" class="active-path" data-old_color="#BBBABA" fill="#FCFBFB"/><path d="m497 241h-53.488281c-8.285157 0-15 6.714844-15 15s6.714843 15 15 15h53.488281c8.285156 0 15-6.714844 15-15s-6.714844-15-15-15zm0 0" data-original="#000000" class="active-path" data-old_color="#BBBABA" fill="#FCFBFB"/><path d="m256 428.511719c-8.285156 0-15 6.714843-15 15v53.488281c0 8.285156 6.714844 15 15 15s15-6.714844 15-15v-53.488281c0-8.285157-6.714844-15-15-15zm0 0" data-original="#000000" class="active-path" data-old_color="#BBBABA" fill="#FCFBFB"/><path d="m256 106.980469c-82.171875 0-149.019531 66.847656-149.019531 149.019531s66.847656 149.023438 149.019531 149.023438 149.023438-66.851563 149.023438-149.023438-66.851563-149.019531-149.023438-149.019531zm0 0" data-original="#000000" class="active-path" data-old_color="#BBBABA" fill="#FCFBFB"/></g> </svg>
